<svg width="55" height="55" viewBox="0 0 55 55" fill="none" xmlns="http://www.w3.org/2000/svg">
<g clip-path="url(#clip0_113_2)">
<rect width="55" height="55" fill="white"/>

    <rect width="55" height="55" fill="#ca8a04"/>
<path d="M7.63991 16H5.3331L8.84801 5.81818H11.6222L15.1321 16H12.8253L10.2749 8.14489H10.1953L7.63991 16ZM7.49574 11.9979H12.9446V13.6783H7.49574V11.9979ZM18.4357 5.81818V16H16.3178V5.81818H18.4357ZM22.2502 5.81818V16H20.1323V5.81818H22.2502ZM8.17685 33L5.26349 22.8182H7.61506L9.30043 29.8928H9.38494L11.2443 22.8182H13.2578L15.1122 29.9077H15.2017L16.8871 22.8182H19.2386L16.3253 33H14.2273L12.2884 26.343H12.2088L10.2749 33H8.17685ZM22.981 33.1491C22.2087 33.1491 21.5409 32.9851 20.9775 32.657C20.4173 32.3255 19.9848 31.8648 19.6799 31.2749C19.3749 30.6816 19.2225 29.9938 19.2225 29.2116C19.2225 28.4228 19.3749 27.7334 19.6799 27.1435C19.9848 26.5502 20.4173 26.0895 20.9775 25.7614C21.5409 25.4299 22.2087 25.2642 22.981 25.2642C23.7533 25.2642 24.4194 25.4299 24.9796 25.7614C25.543 26.0895 25.9772 26.5502 26.2821 27.1435C26.5871 27.7334 26.7395 28.4228 26.7395 29.2116C26.7395 29.9938 26.5871 30.6816 26.2821 31.2749C25.9772 31.8648 25.543 32.3255 24.9796 32.657C24.4194 32.9851 23.7533 33.1491 22.981 33.1491ZM22.9909 31.5085C23.3423 31.5085 23.6356 31.4091 23.8709 31.2102C24.1062 31.008 24.2836 30.733 24.4029 30.3849C24.5255 30.0369 24.5868 29.6409 24.5868 29.1967C24.5868 28.7526 24.5255 28.3565 24.4029 28.0085C24.2836 27.6605 24.1062 27.3854 23.8709 27.1832C23.6356 26.9811 23.3423 26.88 22.9909 26.88C22.6363 26.88 22.338 26.9811 22.0961 27.1832C21.8574 27.3854 21.6768 27.6605 21.5542 28.0085C21.4348 28.3565 21.3752 28.7526 21.3752 29.1967C21.3752 29.6409 21.4348 30.0369 21.5542 30.3849C21.6768 30.733 21.8574 31.008 22.0961 31.2102C22.338 31.4091 22.6363 31.5085 22.9909 31.5085ZM29.7374 33L26.824 22.8182H29.1756L30.861 29.8928H30.9455L32.8049 22.8182H34.8184L36.6728 29.9077H36.7623L38.4476 22.8182H40.7992L37.8858 33H35.7878L33.8489 26.343H33.7694L31.8354 33H29.7374ZM5.88494 50V39.8182H9.90199C10.6742 39.8182 11.3321 39.9657 11.8757 40.2607C12.4193 40.5523 12.8336 40.9583 13.1186 41.4787C13.407 41.9957 13.5511 42.5923 13.5511 43.2685C13.5511 43.9446 13.4053 44.5412 13.1136 45.0582C12.822 45.5753 12.3994 45.978 11.8459 46.2663C11.2957 46.5547 10.6295 46.6989 9.8473 46.6989H7.28693V44.9737H9.49929C9.91359 44.9737 10.255 44.9025 10.5234 44.7599C10.7952 44.6141 10.9974 44.4136 11.13 44.1584C11.2659 43.8999 11.3338 43.6032 11.3338 43.2685C11.3338 42.9304 11.2659 42.6354 11.13 42.3835C10.9974 42.1283 10.7952 41.9311 10.5234 41.7919C10.2517 41.6494 9.90696 41.5781 9.48935 41.5781H8.03764V50H5.88494ZM22.0289 42.3636L19.3592 50H16.9728L14.3031 42.3636H16.5403L18.1262 47.8274H18.2058L19.7868 42.3636H22.0289ZM23.1525 50V39.8182H27.1696C27.9418 39.8182 28.5997 39.9657 29.1433 40.2607C29.6868 40.5523 30.1011 40.9583 30.3862 41.4787C30.6745 41.9957 30.8187 42.5923 30.8187 43.2685C30.8187 43.9446 30.6729 44.5412 30.3812 45.0582C30.0895 45.5753 29.667 45.978 29.1135 46.2663C28.5633 46.5547 27.8971 46.6989 27.1149 46.6989H24.5545V44.9737H26.7669C27.1812 44.9737 27.5225 44.9025 27.791 44.7599C28.0628 44.6141 28.265 44.4136 28.3975 44.1584C28.5334 43.8999 28.6014 43.6032 28.6014 43.2685C28.6014 42.9304 28.5334 42.6354 28.3975 42.3835C28.265 42.1283 28.0628 41.9311 27.791 41.7919C27.5192 41.6494 27.1745 41.5781 26.7569 41.5781H25.3052V50H23.1525Z" fill="white"/>
</g>
<defs>
<clipPath id="clip0_113_2">
<rect width="55" height="55" fill="white"/>
</clipPath>
</defs>
</svg>
