<svg width="244" height="55" viewBox="0 0 244 55" fill="none" xmlns="http://www.w3.org/2000/svg">
<g clip-path="url(#clip0_114_44)">
<rect width="58" height="55" fill="#ca8a04"/>
<path d="M14.0341 39H8.76136L16.7955 15.7273H23.1364L31.1591 39H25.8864L20.0568 21.0455H19.875L14.0341 39ZM13.7045 29.8523H26.1591V33.6932H13.7045V29.8523ZM38.7102 15.7273V39H33.8693V15.7273H38.7102ZM47.429 15.7273V39H42.5881V15.7273H47.429Z" fill="white"/>
<rect x="167" width="77" height="55" fill="#ca8a04"/>
<path d="M177.023 39V15.7273H186.205C187.97 15.7273 189.473 16.0644 190.716 16.7386C191.958 17.4053 192.905 18.3333 193.557 19.5227C194.216 20.7045 194.545 22.0682 194.545 23.6136C194.545 25.1591 194.212 26.5227 193.545 27.7045C192.879 28.8864 191.913 29.8068 190.648 30.4659C189.39 31.125 187.867 31.4545 186.08 31.4545H180.227V27.5114H185.284C186.231 27.5114 187.011 27.3485 187.625 27.0227C188.246 26.6894 188.708 26.2311 189.011 25.6477C189.322 25.0568 189.477 24.3788 189.477 23.6136C189.477 22.8409 189.322 22.1667 189.011 21.5909C188.708 21.0076 188.246 20.5568 187.625 20.2386C187.004 19.9129 186.216 19.75 185.261 19.75H181.943V39H177.023ZM213.923 21.5455L207.821 39H202.366L196.264 21.5455H201.378L205.003 34.0341H205.185L208.798 21.5455H213.923ZM216.491 39V15.7273H225.673C227.438 15.7273 228.942 16.0644 230.185 16.7386C231.427 17.4053 232.374 18.3333 233.026 19.5227C233.685 20.7045 234.014 22.0682 234.014 23.6136C234.014 25.1591 233.681 26.5227 233.014 27.7045C232.348 28.8864 231.382 29.8068 230.116 30.4659C228.859 31.125 227.336 31.4545 225.548 31.4545H219.696V27.5114H224.753C225.7 27.5114 226.48 27.3485 227.094 27.0227C227.715 26.6894 228.177 26.2311 228.48 25.6477C228.791 25.0568 228.946 24.3788 228.946 23.6136C228.946 22.8409 228.791 22.1667 228.48 21.5909C228.177 21.0076 227.715 20.5568 227.094 20.2386C226.473 19.9129 225.685 19.75 224.73 19.75H221.412V39H216.491Z" fill="white"/>
<rect x="63" width="99" height="55" fill="#ca8a04"/>
<path d="M78.2614 39L71.6023 15.7273H76.9773L80.8295 31.8977H81.0227L85.2727 15.7273H89.875L94.1136 31.9318H94.3182L98.1705 15.7273H103.545L96.8864 39H92.0909L87.6591 23.7841H87.4773L83.0568 39H78.2614ZM112.099 39.3409C110.334 39.3409 108.808 38.9659 107.52 38.2159C106.24 37.4583 105.251 36.4053 104.554 35.0568C103.857 33.7008 103.509 32.1288 103.509 30.3409C103.509 28.5379 103.857 26.9621 104.554 25.6136C105.251 24.2576 106.24 23.2045 107.52 22.4545C108.808 21.697 110.334 21.3182 112.099 21.3182C113.865 21.3182 115.387 21.697 116.668 22.4545C117.955 23.2045 118.948 24.2576 119.645 25.6136C120.342 26.9621 120.69 28.5379 120.69 30.3409C120.69 32.1288 120.342 33.7008 119.645 35.0568C118.948 36.4053 117.955 37.4583 116.668 38.2159C115.387 38.9659 113.865 39.3409 112.099 39.3409ZM112.122 35.5909C112.925 35.5909 113.596 35.3636 114.134 34.9091C114.671 34.447 115.077 33.8182 115.349 33.0227C115.63 32.2273 115.77 31.322 115.77 30.3068C115.77 29.2917 115.63 28.3864 115.349 27.5909C115.077 26.7955 114.671 26.1667 114.134 25.7045C113.596 25.2424 112.925 25.0114 112.122 25.0114C111.312 25.0114 110.63 25.2424 110.077 25.7045C109.531 26.1667 109.118 26.7955 108.838 27.5909C108.565 28.3864 108.429 29.2917 108.429 30.3068C108.429 31.322 108.565 32.2273 108.838 33.0227C109.118 33.8182 109.531 34.447 110.077 34.9091C110.63 35.3636 111.312 35.5909 112.122 35.5909ZM127.543 39L120.884 15.7273H126.259L130.111 31.8977H130.304L134.554 15.7273H139.156L143.395 31.9318H143.599L147.452 15.7273H152.827L146.168 39H141.372L136.94 23.7841H136.759L132.338 39H127.543Z" fill="white"/>
</g>
<defs>
<clipPath id="clip0_114_44">
<rect width="244" height="55" fill="white"/>
</clipPath>
</defs>
</svg>
