<?xml version="1.0" encoding="UTF-8"?>
<svg width="55px" height="55px" viewBox="0 0 55 55" version="1.1" xmlns="http://www.w3.org/2000/svg" xmlns:xlink="http://www.w3.org/1999/xlink">
    <title>favicon</title>
    <g id="favicon" stroke="none" stroke-width="1" fill="none" fill-rule="evenodd">
        <rect id="Rectangle" fill="#FFFFFF" fill-rule="nonzero" x="0" y="0" width="55" height="55"></rect>
        <rect id="Rectangle" fill="#CA8A04" fill-rule="nonzero" x="0" y="0" width="55" height="55"></rect>
        <g id="Group-2" transform="translate(4.000000, 20.000000)" fill="#FFFFFF" fill-rule="nonzero">
            <g id="Group">
                <polygon id="Path" points="3.44914978 15 0 15 5.25550482 0 9.40348269 0 14.6514965 15 11.2023617 15 7.38899536 3.4277418 7.26997719 3.4277418"></polygon>
                <polygon id="Path" points="3.23358633 9.10405016 11.3807394 9.10405016 11.3807394 11.579639 3.23358633 11.579639"></polygon>
            </g>
            <polygon id="Path" points="17.0075618 15 12.6514965 2.94642805e-05 16.1675716 2.94642805e-05 18.6875423 10.4224294 18.8139019 10.4224294 21.594023 2.94642805e-05 24.6046147 2.94642805e-05 27.3773196 10.4443803 27.5111403 10.4443803 30.0311558 2.94642805e-05 33.5471263 2.94642805e-05 29.1911507 15 26.0542143 15 23.1551647 5.19281425 23.0361465 5.19281425 20.144573 15"></polygon>
            <path d="M35.5375327,15 L35.5375327,2.94642805e-05 L41.5438389,2.94642805e-05 C42.6984498,2.94642805e-05 43.682144,0.217328533 44.4949365,0.651926669 C45.307729,1.08151588 45.9271917,1.67964077 46.3533246,2.44630135 C46.7845412,3.207953 47,4.08687248 47,5.08305981 C47,6.07909981 46.7819994,6.95801929 46.3458486,7.71967094 C45.9098473,8.48146991 45.2779744,9.0747332 44.4503794,9.4994608 C43.6277186,9.92433573 42.6316142,10.1367732 41.4620662,10.1367732 L37.6337927,10.1367732 L37.6337927,7.59518436 L40.9417206,7.59518436 C41.5611833,7.59518436 42.0716606,7.49029152 42.4729732,7.2802112 C42.8793694,7.0654166 43.1816995,6.77003718 43.3799634,6.39407297 C43.5831616,6.01324714 43.6846859,5.57614454 43.6846859,5.08305981 C43.6846859,4.58496615 43.5831616,4.15036801 43.3799634,3.7792654 C43.1816995,3.40330118 42.8793694,3.11278337 42.4729732,2.90771198 C42.0667264,2.69777898 41.5512701,2.59273882 40.9268582,2.59273882 L38.7562568,2.59273882 L38.7562568,15 L35.5375327,15 Z" id="Path"></path>
        </g>
    </g>
</svg>